<?xml version="1.0" encoding="UTF-8"?><svg id="Layer_1" xmlns="http://www.w3.org/2000/svg" viewBox="0 0 512 512"><defs><style>.cls-1{fill:#fed866;}.cls-2{fill:#fefefd;}.cls-3{fill:#fde8a6;}.cls-4{fill:#062349;}.cls-5{fill:#052349;}</style></defs><path class="cls-2" d="M236,0c.88.24.88.57.04.97-3.59-.01-7,.43-10.65.87C108.34,15.93,15.92,108.34,1.85,225.38c-.43,3.6-.89,7.17-.88,10.58-.24.88-.56.88-.97.04V0h236Z"/><path class="cls-2" d="M276,0h236v236c-.31.86-.63.84-.97-.04l-.88-10.58C496.08,108.34,403.66,15.93,286.62,1.84l-10.58-.88c-.88-.24-.88-.56-.04-.97Z"/><path class="cls-2" d="M235.96,511.03c.88.24.88.56.04.97H0v-236c.31-.86.63-.84.97.04l.88,10.58c14.08,117.05,106.49,209.45,223.54,223.54l10.57.88Z"/><path class="cls-2" d="M512,276v236h-236c-.86-.31-.84-.63.04-.97l10.57-.88c117.05-14.09,209.46-106.48,223.54-223.54l.88-10.58c.24-.88.56-.88.97-.04Z"/><path class="cls-1" d="M264,0c4.03.37,8.04.69,12.04.97,58.49-.59,119.6,30.28,161.44,71.7,42.43,42,74.07,103.78,73.55,163.3.28,3.95.6,7.96.97,12.04v16c-.37,4.03-.69,8.04-.97,12.04.58,58.49-30.27,119.6-71.7,161.44s-103.78,74.07-163.3,73.55c-3.95.28-7.96.6-12.04.97h-16c-4.03-.37-8.04-.69-12.04-.97-59.39.54-121.25-31.08-163.3-73.55C31.28,395.68.41,334.66.97,276.04c-.28-3.95-.6-7.96-.97-12.04v-16c.37-4.03.69-8.04.97-12.04-.33-59.97,31.11-121.28,73.55-163.3S176.94.55,236.04.97c3.87-.3,7.86-.62,11.96-.97h16Z"/><path class="cls-3" d="M248,0c.11.08-1.72,1-2.19,1l-9.78-.03-.04-.97h12Z"/><polygon class="cls-3" points="276 0 276.04 .97 264.91 1.01 264 0 276 0"/><polygon class="cls-3" points="0 248 0 236 .97 235.96 1.01 247.09 0 248"/><polygon class="cls-3" points="512 248 510.99 247.09 511.03 235.96 512 236 512 248"/><polygon class="cls-3" points=".97 276.04 0 276 0 264 1.01 264.91 .97 276.04"/><polygon class="cls-3" points="512 276 511.03 276.04 510.99 264.91 512 264 512 276"/><polygon class="cls-3" points="248 512 236 512 235.96 511.03 247.09 510.99 248 512"/><polygon class="cls-3" points="276.04 511.03 276 512 264 512 264.91 510.99 276.04 511.03"/><path class="cls-4" d="M154.3,354.18c-29.82,9.29-64.94,6.23-94.92-2.58-2.17-.64-3.53-4.1-3.01-6.17l11.22-44.82c.76-3.05,4.43-4.84,7.23-4.84l24.38.06c1.86,0,3.85,2.69,3.33,4.42l-6.89,22.61c5.31,3.56,10.64,6.02,16.72,6.84,25,3.37,51.48-1.97,54.72-28.65,1.78-14.6-13.17-22.74-27.17-27.02-10.23-3.13-19.98-6.13-29.89-10.14-10.04-4.06-17.78-12.5-21.05-22.77-5.13-16.13,2.34-39.65,13.59-53.65,17.86-22.23,44.74-34.8,73.35-34.86,20.29-.05,34.74,1.58,54.14,7.38,1.85.55,3.58,3.94,3.07,5.97l-11.02,44.2c-.76,3.05-3.89,5.22-7.05,5.22l-25.19-.03c-1.02,0-3.22-2.34-2.84-3.44l7.91-22.97c-12.89-7.54-29.19-7.81-42.88-3.94-12.46,3.52-21.15,14.76-19.93,28.02.92,10.01,15.54,17,26.27,20.51s21.8,6.92,32.49,11.66c10.09,4.47,17.79,13.44,20.87,23.95,2.31,7.86,1.68,15.84.04,23.78-6.33,30.48-28.08,52.08-57.51,61.25Z"/><path class="cls-5" d="M455.56,159.02c1.16,2.49.9,6.68-.65,9.14l-114.83,182.71c-1.58,2.52-5.33,4.12-7.94,4.12l-35.29.04c-2.37,0-5.9-1.98-6.19-4.98l-15.09-160.23-20.7.02c-2.37,0-4.29-2.31-4.13-4.72l5.71-22.84c.62-2.5,3.68-5.25,6.51-5.25l54.06-.03c2.79.33,4.86,2,5.33,4.92l9.67,148.16,71.8-120.02-20.95-.32c-2.15.32-4.64-2.37-4.08-4.61l5.66-22.84c.67-2.7,3.65-4.97,6.54-5.28h60.09c.81-.02,4.06,1.09,4.5,2.03Z"/></svg>